<svg width="461" height="132" viewBox="0 0 461 132" fill="none" xmlns="http://www.w3.org/2000/svg">
<rect width="461" height="132" fill="#658DAC"/>
<path d="M177.886 28.25C177.674 26.2652 176.78 24.7197 175.205 23.6136C173.644 22.5076 171.614 21.9545 169.114 21.9545C167.356 21.9545 165.848 22.2197 164.591 22.75C163.333 23.2803 162.371 24 161.705 24.9091C161.038 25.8182 160.697 26.8561 160.682 28.0227C160.682 28.9924 160.902 29.8333 161.341 30.5455C161.795 31.2576 162.409 31.8636 163.182 32.3636C163.955 32.8485 164.811 33.2576 165.75 33.5909C166.689 33.9242 167.636 34.2045 168.591 34.4318L172.955 35.5227C174.712 35.9318 176.402 36.4848 178.023 37.1818C179.659 37.8788 181.121 38.7576 182.409 39.8182C183.712 40.8788 184.742 42.1591 185.5 43.6591C186.258 45.1591 186.636 46.9167 186.636 48.9318C186.636 51.6591 185.939 54.0606 184.545 56.1364C183.152 58.197 181.136 59.8106 178.5 60.9773C175.879 62.1288 172.705 62.7045 168.977 62.7045C165.356 62.7045 162.212 62.1439 159.545 61.0227C156.894 59.9015 154.818 58.2652 153.318 56.1136C151.833 53.9621 151.03 51.3409 150.909 48.25H159.205C159.326 49.8712 159.826 51.2197 160.705 52.2955C161.583 53.3712 162.727 54.1742 164.136 54.7045C165.561 55.2348 167.152 55.5 168.909 55.5C170.742 55.5 172.348 55.2273 173.727 54.6818C175.121 54.1212 176.212 53.3485 177 52.3636C177.788 51.3636 178.189 50.197 178.205 48.8636C178.189 47.6515 177.833 46.6515 177.136 45.8636C176.439 45.0606 175.462 44.3939 174.205 43.8636C172.962 43.3182 171.508 42.8333 169.841 42.4091L164.545 41.0455C160.712 40.0606 157.682 38.5682 155.455 36.5682C153.242 34.553 152.136 31.8788 152.136 28.5455C152.136 25.803 152.879 23.4015 154.364 21.3409C155.864 19.2803 157.902 17.6818 160.477 16.5455C163.053 15.3939 165.97 14.8182 169.227 14.8182C172.53 14.8182 175.424 15.3939 177.909 16.5455C180.409 17.6818 182.371 19.2652 183.795 21.2955C185.22 23.3106 185.955 25.6288 186 28.25H177.886ZM194.153 62V15.4545H211.608C215.184 15.4545 218.184 16.0758 220.608 17.3182C223.047 18.5606 224.888 20.303 226.131 22.5455C227.388 24.7727 228.017 27.3712 228.017 30.3409C228.017 33.3258 227.381 35.9167 226.108 38.1136C224.85 40.2955 222.994 41.9848 220.54 43.1818C218.085 44.3636 215.07 44.9545 211.494 44.9545H199.062V37.9545H210.358C212.449 37.9545 214.161 37.6667 215.494 37.0909C216.828 36.5 217.813 35.6439 218.449 34.5227C219.1 33.3864 219.426 31.9924 219.426 30.3409C219.426 28.6894 219.1 27.2803 218.449 26.1136C217.797 24.9318 216.805 24.0379 215.472 23.4318C214.138 22.8106 212.419 22.5 210.312 22.5H202.585V62H194.153ZM218.199 40.9091L229.722 62H220.312L208.994 40.9091H218.199ZM265.591 62V15.4545H274.023V54.9318H294.523V62H265.591Z" fill="white"/>
<path d="M256.574 39.2273V46H235.619V39.2273H256.574Z" fill="white"/>
<path d="M256.574 39.2273V46H235.619V39.2273H256.574Z" fill="#283844"/>
<circle cx="305.5" cy="22.5" r="7.5" fill="#45D05C"/>
<path d="M53.9432 94.125C53.8371 93.1326 53.3902 92.3598 52.6023 91.8068C51.822 91.2538 50.8068 90.9773 49.5568 90.9773C48.678 90.9773 47.9242 91.1098 47.2955 91.375C46.6667 91.6402 46.1856 92 45.8523 92.4545C45.5189 92.9091 45.3485 93.428 45.3409 94.0114C45.3409 94.4962 45.4508 94.9167 45.6705 95.2727C45.8977 95.6288 46.2045 95.9318 46.5909 96.1818C46.9773 96.4242 47.4053 96.6288 47.875 96.7955C48.3447 96.9621 48.8182 97.1023 49.2955 97.2159L51.4773 97.7614C52.3561 97.9659 53.2008 98.2424 54.0114 98.5909C54.8295 98.9394 55.5606 99.3788 56.2045 99.9091C56.8561 100.439 57.3712 101.08 57.75 101.83C58.1288 102.58 58.3182 103.458 58.3182 104.466C58.3182 105.83 57.9697 107.03 57.2727 108.068C56.5758 109.098 55.5682 109.905 54.25 110.489C52.9394 111.064 51.3523 111.352 49.4886 111.352C47.678 111.352 46.1061 111.072 44.7727 110.511C43.447 109.951 42.4091 109.133 41.6591 108.057C40.9167 106.981 40.5152 105.67 40.4545 104.125H44.6023C44.6629 104.936 44.9129 105.61 45.3523 106.148C45.7917 106.686 46.3636 107.087 47.0682 107.352C47.7803 107.617 48.5758 107.75 49.4545 107.75C50.3712 107.75 51.1742 107.614 51.8636 107.341C52.5606 107.061 53.1061 106.674 53.5 106.182C53.8939 105.682 54.0947 105.098 54.1023 104.432C54.0947 103.826 53.9167 103.326 53.5682 102.932C53.2197 102.53 52.7311 102.197 52.1023 101.932C51.4811 101.659 50.7538 101.417 49.9205 101.205L47.2727 100.523C45.3561 100.03 43.8409 99.2841 42.7273 98.2841C41.6212 97.2765 41.0682 95.9394 41.0682 94.2727C41.0682 92.9015 41.4394 91.7008 42.1818 90.6705C42.9318 89.6402 43.9508 88.8409 45.2386 88.2727C46.5265 87.697 47.9848 87.4091 49.6136 87.4091C51.2652 87.4091 52.7121 87.697 53.9545 88.2727C55.2045 88.8409 56.1856 89.6326 56.8977 90.6477C57.6098 91.6553 57.9773 92.8144 58 94.125H53.9432ZM69.6222 111.341C67.8722 111.341 66.3608 110.977 65.0881 110.25C63.8229 109.515 62.8494 108.477 62.1676 107.136C61.4858 105.788 61.1449 104.201 61.1449 102.375C61.1449 100.58 61.4858 99.0038 62.1676 97.6477C62.857 96.2841 63.8191 95.2235 65.054 94.4659C66.2888 93.7008 67.7396 93.3182 69.4062 93.3182C70.482 93.3182 71.4972 93.4924 72.4517 93.8409C73.4138 94.1818 74.2623 94.7121 74.9972 95.4318C75.7396 96.1515 76.3229 97.0682 76.7472 98.1818C77.1714 99.2879 77.3835 100.606 77.3835 102.136V103.398H63.0767V100.625H73.4403C73.4328 99.8371 73.2623 99.1364 72.929 98.5227C72.5956 97.9015 72.1297 97.4129 71.5312 97.0568C70.9403 96.7008 70.2509 96.5227 69.4631 96.5227C68.6222 96.5227 67.8835 96.7273 67.2472 97.1364C66.6108 97.5379 66.1146 98.0682 65.7585 98.7273C65.41 99.3788 65.232 100.095 65.2244 100.875V103.295C65.2244 104.311 65.41 105.182 65.7812 105.909C66.1525 106.629 66.6714 107.182 67.3381 107.568C68.0047 107.947 68.785 108.136 69.679 108.136C70.2775 108.136 70.8191 108.053 71.304 107.886C71.7888 107.712 72.2093 107.458 72.5653 107.125C72.9214 106.792 73.1903 106.379 73.3722 105.886L77.2131 106.318C76.9706 107.333 76.5085 108.22 75.8267 108.977C75.1525 109.727 74.2888 110.311 73.2358 110.727C72.1828 111.136 70.9782 111.341 69.6222 111.341ZM84.9773 87.7273V111H80.8636V87.7273H84.9773ZM98.0483 93.5455V96.7273H87.7301V93.5455H98.0483ZM90.3097 111V91.8977C90.3097 90.7235 90.5521 89.7462 91.0369 88.9659C91.5294 88.1856 92.1884 87.6023 93.0142 87.2159C93.84 86.8295 94.7566 86.6364 95.7642 86.6364C96.4763 86.6364 97.1089 86.6932 97.6619 86.8068C98.215 86.9205 98.6241 87.0227 98.8892 87.1136L98.071 90.2955C97.8968 90.2424 97.6771 90.1894 97.4119 90.1364C97.1468 90.0758 96.8513 90.0455 96.5256 90.0455C95.7604 90.0455 95.2188 90.2311 94.9006 90.6023C94.59 90.9659 94.4347 91.4886 94.4347 92.1705V111H90.3097ZM109.389 111V87.7273H118.116C119.904 87.7273 121.404 88.0379 122.616 88.6591C123.836 89.2803 124.757 90.1515 125.378 91.2727C126.007 92.3864 126.321 93.6856 126.321 95.1705C126.321 96.6629 126.003 97.9583 125.366 99.0568C124.738 100.148 123.81 100.992 122.582 101.591C121.355 102.182 119.848 102.477 118.06 102.477H111.844V98.9773H117.491C118.537 98.9773 119.393 98.8333 120.06 98.5455C120.726 98.25 121.219 97.822 121.537 97.2614C121.863 96.6932 122.026 95.9962 122.026 95.1705C122.026 94.3447 121.863 93.6402 121.537 93.0568C121.211 92.4659 120.715 92.0189 120.048 91.7159C119.382 91.4053 118.522 91.25 117.469 91.25H113.605V111H109.389ZM121.412 100.455L127.173 111H122.469L116.81 100.455H121.412ZM137.497 111.341C135.747 111.341 134.236 110.977 132.963 110.25C131.698 109.515 130.724 108.477 130.043 107.136C129.361 105.788 129.02 104.201 129.02 102.375C129.02 100.58 129.361 99.0038 130.043 97.6477C130.732 96.2841 131.694 95.2235 132.929 94.4659C134.164 93.7008 135.615 93.3182 137.281 93.3182C138.357 93.3182 139.372 93.4924 140.327 93.8409C141.289 94.1818 142.137 94.7121 142.872 95.4318C143.615 96.1515 144.198 97.0682 144.622 98.1818C145.046 99.2879 145.259 100.606 145.259 102.136V103.398H130.952V100.625H141.315C141.308 99.8371 141.137 99.1364 140.804 98.5227C140.471 97.9015 140.005 97.4129 139.406 97.0568C138.815 96.7008 138.126 96.5227 137.338 96.5227C136.497 96.5227 135.759 96.7273 135.122 97.1364C134.486 97.5379 133.99 98.0682 133.634 98.7273C133.285 99.3788 133.107 100.095 133.099 100.875V103.295C133.099 104.311 133.285 105.182 133.656 105.909C134.027 106.629 134.546 107.182 135.213 107.568C135.88 107.947 136.66 108.136 137.554 108.136C138.152 108.136 138.694 108.053 139.179 107.886C139.664 107.712 140.084 107.458 140.44 107.125C140.796 106.792 141.065 106.379 141.247 105.886L145.088 106.318C144.846 107.333 144.384 108.22 143.702 108.977C143.027 109.727 142.164 110.311 141.111 110.727C140.058 111.136 138.853 111.341 137.497 111.341ZM156.33 117.909C154.852 117.909 153.583 117.708 152.523 117.307C151.462 116.913 150.61 116.383 149.966 115.716C149.322 115.049 148.875 114.311 148.625 113.5L152.33 112.602C152.496 112.943 152.739 113.28 153.057 113.614C153.375 113.955 153.803 114.235 154.341 114.455C154.886 114.682 155.572 114.795 156.398 114.795C157.564 114.795 158.53 114.511 159.295 113.943C160.061 113.383 160.443 112.458 160.443 111.17V107.864H160.239C160.027 108.288 159.716 108.723 159.307 109.17C158.905 109.617 158.371 109.992 157.705 110.295C157.045 110.598 156.216 110.75 155.216 110.75C153.875 110.75 152.659 110.436 151.568 109.807C150.485 109.17 149.621 108.223 148.977 106.966C148.341 105.701 148.023 104.117 148.023 102.216C148.023 100.299 148.341 98.6818 148.977 97.3636C149.621 96.0379 150.489 95.0341 151.58 94.3523C152.67 93.6629 153.886 93.3182 155.227 93.3182C156.25 93.3182 157.091 93.4924 157.75 93.8409C158.417 94.1818 158.947 94.5947 159.341 95.0795C159.735 95.5568 160.034 96.0076 160.239 96.4318H160.466V93.5455H164.523V111.284C164.523 112.777 164.167 114.011 163.455 114.989C162.742 115.966 161.769 116.697 160.534 117.182C159.299 117.667 157.898 117.909 156.33 117.909ZM156.364 107.523C157.235 107.523 157.977 107.311 158.591 106.886C159.205 106.462 159.67 105.852 159.989 105.057C160.307 104.261 160.466 103.307 160.466 102.193C160.466 101.095 160.307 100.133 159.989 99.3068C159.678 98.4811 159.216 97.8409 158.602 97.3864C157.996 96.9242 157.25 96.6932 156.364 96.6932C155.447 96.6932 154.682 96.9318 154.068 97.4091C153.455 97.8864 152.992 98.5417 152.682 99.375C152.371 100.201 152.216 101.14 152.216 102.193C152.216 103.261 152.371 104.197 152.682 105C153 105.795 153.466 106.417 154.08 106.864C154.701 107.303 155.462 107.523 156.364 107.523ZM179.864 103.659V93.5455H183.977V111H179.989V107.898H179.807C179.413 108.875 178.765 109.674 177.864 110.295C176.97 110.917 175.867 111.227 174.557 111.227C173.413 111.227 172.402 110.973 171.523 110.466C170.652 109.951 169.97 109.205 169.477 108.227C168.985 107.242 168.739 106.053 168.739 104.659V93.5455H172.852V104.023C172.852 105.129 173.155 106.008 173.761 106.659C174.367 107.311 175.163 107.636 176.148 107.636C176.754 107.636 177.341 107.489 177.909 107.193C178.477 106.898 178.943 106.458 179.307 105.875C179.678 105.284 179.864 104.545 179.864 103.659ZM192.321 87.7273V111H188.207V87.7273H192.321ZM201.574 111.352C200.468 111.352 199.472 111.155 198.585 110.761C197.706 110.36 197.009 109.769 196.494 108.989C195.987 108.208 195.733 107.246 195.733 106.102C195.733 105.117 195.915 104.303 196.278 103.659C196.642 103.015 197.138 102.5 197.767 102.114C198.396 101.727 199.104 101.436 199.892 101.239C200.688 101.034 201.509 100.886 202.358 100.795C203.381 100.689 204.21 100.595 204.847 100.511C205.483 100.42 205.945 100.284 206.233 100.102C206.528 99.9129 206.676 99.6212 206.676 99.2273V99.1591C206.676 98.303 206.422 97.6402 205.915 97.1705C205.407 96.7008 204.676 96.4659 203.722 96.4659C202.714 96.4659 201.915 96.6856 201.324 97.125C200.741 97.5644 200.347 98.0833 200.142 98.6818L196.301 98.1364C196.604 97.0758 197.104 96.1894 197.801 95.4773C198.498 94.7576 199.35 94.2197 200.358 93.8636C201.366 93.5 202.479 93.3182 203.699 93.3182C204.54 93.3182 205.377 93.4167 206.21 93.6136C207.044 93.8106 207.805 94.1364 208.494 94.5909C209.184 95.0379 209.737 95.6477 210.153 96.4205C210.578 97.1932 210.79 98.1591 210.79 99.3182V111H206.835V108.602H206.699C206.449 109.087 206.097 109.542 205.642 109.966C205.195 110.383 204.631 110.72 203.949 110.977C203.275 111.227 202.483 111.352 201.574 111.352ZM202.642 108.33C203.468 108.33 204.184 108.167 204.79 107.841C205.396 107.508 205.862 107.068 206.188 106.523C206.521 105.977 206.688 105.383 206.688 104.739V102.682C206.559 102.788 206.339 102.886 206.028 102.977C205.725 103.068 205.384 103.148 205.006 103.216C204.627 103.284 204.252 103.345 203.881 103.398C203.509 103.451 203.188 103.496 202.915 103.534C202.301 103.617 201.752 103.754 201.267 103.943C200.782 104.133 200.4 104.398 200.119 104.739C199.839 105.072 199.699 105.504 199.699 106.034C199.699 106.792 199.975 107.364 200.528 107.75C201.081 108.136 201.786 108.33 202.642 108.33ZM223.642 93.5455V96.7273H213.608V93.5455H223.642ZM216.085 89.3636H220.199V105.75C220.199 106.303 220.282 106.727 220.449 107.023C220.623 107.311 220.85 107.508 221.131 107.614C221.411 107.72 221.722 107.773 222.062 107.773C222.32 107.773 222.555 107.754 222.767 107.716C222.987 107.678 223.153 107.644 223.267 107.614L223.96 110.83C223.741 110.905 223.426 110.989 223.017 111.08C222.616 111.17 222.123 111.223 221.54 111.239C220.509 111.269 219.581 111.114 218.756 110.773C217.93 110.424 217.275 109.886 216.79 109.159C216.313 108.432 216.078 107.523 216.085 106.432V89.3636ZM234.622 111.341C232.872 111.341 231.361 110.977 230.088 110.25C228.823 109.515 227.849 108.477 227.168 107.136C226.486 105.788 226.145 104.201 226.145 102.375C226.145 100.58 226.486 99.0038 227.168 97.6477C227.857 96.2841 228.819 95.2235 230.054 94.4659C231.289 93.7008 232.74 93.3182 234.406 93.3182C235.482 93.3182 236.497 93.4924 237.452 93.8409C238.414 94.1818 239.262 94.7121 239.997 95.4318C240.74 96.1515 241.323 97.0682 241.747 98.1818C242.171 99.2879 242.384 100.606 242.384 102.136V103.398H228.077V100.625H238.44C238.433 99.8371 238.262 99.1364 237.929 98.5227C237.596 97.9015 237.13 97.4129 236.531 97.0568C235.94 96.7008 235.251 96.5227 234.463 96.5227C233.622 96.5227 232.884 96.7273 232.247 97.1364C231.611 97.5379 231.115 98.0682 230.759 98.7273C230.41 99.3788 230.232 100.095 230.224 100.875V103.295C230.224 104.311 230.41 105.182 230.781 105.909C231.152 106.629 231.671 107.182 232.338 107.568C233.005 107.947 233.785 108.136 234.679 108.136C235.277 108.136 235.819 108.053 236.304 107.886C236.789 107.712 237.209 107.458 237.565 107.125C237.921 106.792 238.19 106.379 238.372 105.886L242.213 106.318C241.971 107.333 241.509 108.22 240.827 108.977C240.152 109.727 239.289 110.311 238.236 110.727C237.183 111.136 235.978 111.341 234.622 111.341ZM252.341 111.307C250.97 111.307 249.742 110.955 248.659 110.25C247.576 109.545 246.72 108.523 246.091 107.182C245.462 105.841 245.148 104.212 245.148 102.295C245.148 100.356 245.466 98.7197 246.102 97.3864C246.746 96.0455 247.614 95.0341 248.705 94.3523C249.795 93.6629 251.011 93.3182 252.352 93.3182C253.375 93.3182 254.216 93.4924 254.875 93.8409C255.534 94.1818 256.057 94.5947 256.443 95.0795C256.83 95.5568 257.129 96.0076 257.341 96.4318H257.511V87.7273H261.636V111H257.591V108.25H257.341C257.129 108.674 256.822 109.125 256.42 109.602C256.019 110.072 255.489 110.473 254.83 110.807C254.17 111.14 253.341 111.307 252.341 111.307ZM253.489 107.932C254.36 107.932 255.102 107.697 255.716 107.227C256.33 106.75 256.795 106.087 257.114 105.239C257.432 104.39 257.591 103.402 257.591 102.273C257.591 101.144 257.432 100.163 257.114 99.3295C256.803 98.4962 256.341 97.8485 255.727 97.3864C255.121 96.9242 254.375 96.6932 253.489 96.6932C252.572 96.6932 251.807 96.9318 251.193 97.4091C250.58 97.8864 250.117 98.5455 249.807 99.3864C249.496 100.227 249.341 101.189 249.341 102.273C249.341 103.364 249.496 104.337 249.807 105.193C250.125 106.042 250.591 106.712 251.205 107.205C251.826 107.689 252.587 107.932 253.489 107.932ZM274.139 111V87.7273H278.355V107.466H288.605V111H274.139ZM299.81 111.341C298.06 111.341 296.548 110.977 295.276 110.25C294.01 109.515 293.037 108.477 292.355 107.136C291.673 105.788 291.332 104.201 291.332 102.375C291.332 100.58 291.673 99.0038 292.355 97.6477C293.045 96.2841 294.007 95.2235 295.241 94.4659C296.476 93.7008 297.927 93.3182 299.594 93.3182C300.67 93.3182 301.685 93.4924 302.639 93.8409C303.601 94.1818 304.45 94.7121 305.185 95.4318C305.927 96.1515 306.51 97.0682 306.935 98.1818C307.359 99.2879 307.571 100.606 307.571 102.136V103.398H293.264V100.625H303.628C303.62 99.8371 303.45 99.1364 303.116 98.5227C302.783 97.9015 302.317 97.4129 301.719 97.0568C301.128 96.7008 300.438 96.5227 299.651 96.5227C298.81 96.5227 298.071 96.7273 297.435 97.1364C296.798 97.5379 296.302 98.0682 295.946 98.7273C295.598 99.3788 295.42 100.095 295.412 100.875V103.295C295.412 104.311 295.598 105.182 295.969 105.909C296.34 106.629 296.859 107.182 297.526 107.568C298.192 107.947 298.973 108.136 299.866 108.136C300.465 108.136 301.007 108.053 301.491 107.886C301.976 107.712 302.397 107.458 302.753 107.125C303.109 106.792 303.378 106.379 303.56 105.886L307.401 106.318C307.158 107.333 306.696 108.22 306.014 108.977C305.34 109.727 304.476 110.311 303.423 110.727C302.37 111.136 301.166 111.341 299.81 111.341ZM316.074 111.352C314.968 111.352 313.972 111.155 313.085 110.761C312.206 110.36 311.509 109.769 310.994 108.989C310.487 108.208 310.233 107.246 310.233 106.102C310.233 105.117 310.415 104.303 310.778 103.659C311.142 103.015 311.638 102.5 312.267 102.114C312.896 101.727 313.604 101.436 314.392 101.239C315.188 101.034 316.009 100.886 316.858 100.795C317.881 100.689 318.71 100.595 319.347 100.511C319.983 100.42 320.445 100.284 320.733 100.102C321.028 99.9129 321.176 99.6212 321.176 99.2273V99.1591C321.176 98.303 320.922 97.6402 320.415 97.1705C319.907 96.7008 319.176 96.4659 318.222 96.4659C317.214 96.4659 316.415 96.6856 315.824 97.125C315.241 97.5644 314.847 98.0833 314.642 98.6818L310.801 98.1364C311.104 97.0758 311.604 96.1894 312.301 95.4773C312.998 94.7576 313.85 94.2197 314.858 93.8636C315.866 93.5 316.979 93.3182 318.199 93.3182C319.04 93.3182 319.877 93.4167 320.71 93.6136C321.544 93.8106 322.305 94.1364 322.994 94.5909C323.684 95.0379 324.237 95.6477 324.653 96.4205C325.078 97.1932 325.29 98.1591 325.29 99.3182V111H321.335V108.602H321.199C320.949 109.087 320.597 109.542 320.142 109.966C319.695 110.383 319.131 110.72 318.449 110.977C317.775 111.227 316.983 111.352 316.074 111.352ZM317.142 108.33C317.968 108.33 318.684 108.167 319.29 107.841C319.896 107.508 320.362 107.068 320.688 106.523C321.021 105.977 321.188 105.383 321.188 104.739V102.682C321.059 102.788 320.839 102.886 320.528 102.977C320.225 103.068 319.884 103.148 319.506 103.216C319.127 103.284 318.752 103.345 318.381 103.398C318.009 103.451 317.688 103.496 317.415 103.534C316.801 103.617 316.252 103.754 315.767 103.943C315.282 104.133 314.9 104.398 314.619 104.739C314.339 105.072 314.199 105.504 314.199 106.034C314.199 106.792 314.475 107.364 315.028 107.75C315.581 108.136 316.286 108.33 317.142 108.33ZM329.426 111V93.5455H333.415V96.4545H333.597C333.915 95.447 334.46 94.6705 335.233 94.125C336.013 93.572 336.903 93.2955 337.903 93.2955C338.131 93.2955 338.384 93.3068 338.665 93.3295C338.953 93.3447 339.191 93.3712 339.381 93.4091V97.1932C339.206 97.1326 338.93 97.0795 338.551 97.0341C338.18 96.9811 337.82 96.9545 337.472 96.9545C336.722 96.9545 336.047 97.1174 335.449 97.4432C334.858 97.7614 334.392 98.2045 334.051 98.7727C333.71 99.3409 333.54 99.9962 333.54 100.739V111H329.426ZM346.227 100.773V111H342.114V93.5455H346.045V96.5114H346.25C346.652 95.5341 347.292 94.7576 348.17 94.1818C349.057 93.6061 350.152 93.3182 351.455 93.3182C352.659 93.3182 353.708 93.5758 354.602 94.0909C355.504 94.6061 356.201 95.3523 356.693 96.3295C357.193 97.3068 357.439 98.4924 357.432 99.8864V111H353.318V100.523C353.318 99.3561 353.015 98.4432 352.409 97.7841C351.811 97.125 350.981 96.7955 349.92 96.7955C349.201 96.7955 348.561 96.9545 348 97.2727C347.447 97.5833 347.011 98.0341 346.693 98.625C346.383 99.2159 346.227 99.9318 346.227 100.773ZM361.614 111V93.5455H365.727V111H361.614ZM363.682 91.0682C363.03 91.0682 362.47 90.8523 362 90.4205C361.53 89.9811 361.295 89.4545 361.295 88.8409C361.295 88.2197 361.53 87.6932 362 87.2614C362.47 86.822 363.03 86.6023 363.682 86.6023C364.341 86.6023 364.902 86.822 365.364 87.2614C365.833 87.6932 366.068 88.2197 366.068 88.8409C366.068 89.4545 365.833 89.9811 365.364 90.4205C364.902 90.8523 364.341 91.0682 363.682 91.0682ZM374.071 100.773V111H369.957V93.5455H373.889V96.5114H374.094C374.495 95.5341 375.135 94.7576 376.014 94.1818C376.901 93.6061 377.995 93.3182 379.298 93.3182C380.503 93.3182 381.552 93.5758 382.446 94.0909C383.348 94.6061 384.045 95.3523 384.537 96.3295C385.037 97.3068 385.283 98.4924 385.276 99.8864V111H381.162V100.523C381.162 99.3561 380.859 98.4432 380.253 97.7841C379.654 97.125 378.825 96.7955 377.764 96.7955C377.045 96.7955 376.404 96.9545 375.844 97.2727C375.291 97.5833 374.855 98.0341 374.537 98.625C374.226 99.2159 374.071 99.9318 374.071 100.773ZM397.048 117.909C395.571 117.909 394.302 117.708 393.241 117.307C392.181 116.913 391.329 116.383 390.685 115.716C390.041 115.049 389.594 114.311 389.344 113.5L393.048 112.602C393.215 112.943 393.457 113.28 393.776 113.614C394.094 113.955 394.522 114.235 395.06 114.455C395.605 114.682 396.291 114.795 397.116 114.795C398.283 114.795 399.249 114.511 400.014 113.943C400.779 113.383 401.162 112.458 401.162 111.17V107.864H400.957C400.745 108.288 400.435 108.723 400.026 109.17C399.624 109.617 399.09 109.992 398.423 110.295C397.764 110.598 396.935 110.75 395.935 110.75C394.594 110.75 393.378 110.436 392.287 109.807C391.204 109.17 390.34 108.223 389.696 106.966C389.06 105.701 388.741 104.117 388.741 102.216C388.741 100.299 389.06 98.6818 389.696 97.3636C390.34 96.0379 391.207 95.0341 392.298 94.3523C393.389 93.6629 394.605 93.3182 395.946 93.3182C396.969 93.3182 397.81 93.4924 398.469 93.8409C399.135 94.1818 399.666 94.5947 400.06 95.0795C400.454 95.5568 400.753 96.0076 400.957 96.4318H401.185V93.5455H405.241V111.284C405.241 112.777 404.885 114.011 404.173 114.989C403.461 115.966 402.488 116.697 401.253 117.182C400.018 117.667 398.616 117.909 397.048 117.909ZM397.082 107.523C397.954 107.523 398.696 107.311 399.31 106.886C399.923 106.462 400.389 105.852 400.707 105.057C401.026 104.261 401.185 103.307 401.185 102.193C401.185 101.095 401.026 100.133 400.707 99.3068C400.397 98.4811 399.935 97.8409 399.321 97.3864C398.715 96.9242 397.969 96.6932 397.082 96.6932C396.166 96.6932 395.401 96.9318 394.787 97.4091C394.173 97.8864 393.711 98.5417 393.401 99.375C393.09 100.201 392.935 101.14 392.935 102.193C392.935 103.261 393.09 104.197 393.401 105C393.719 105.795 394.185 106.417 394.798 106.864C395.42 107.303 396.181 107.523 397.082 107.523Z" fill="white"/>
</svg>
